<?xml version="1.0" encoding="UTF-8"?>
<svg id="Layer_1" xmlns="http://www.w3.org/2000/svg" version="1.1" viewBox="0 0 96 96">
  <!-- Generator: Adobe Illustrator 29.0.1, SVG Export Plug-In . SVG Version: 2.1.0 Build 192)  -->
  <defs>
    <style>
      .st0 {
        fill: #231f20;
      }

      .st1 {
        fill: #ffc83c;
      }

      .st2 {
        fill: #20aeff;
      }

      .st3 {
        fill: #ff5252;
      }
    </style>
  </defs>
  <rect class="st0" x="5" y="5" width="86" height="86" rx="12.7" ry="12.7"/>
  <g>
    <path class="st3" d="M60.3,50.2c0,0,.1-.1.2-.2,6.8-7.1,6.8-18.6,0-25.7-6.8-7.1-17.8-7.1-24.6,0-2.5,2.6-4.1,5.8-4.8,9.3,0,.1,0,.2,0,.4,0,.3,0,.5-.1.8,0,.3,0,.6,0,.8,0,.4,0,.8,0,1.1,0,1.3,1,2.4,2.3,2.5,1.3,0,2.3-1,2.4-2.4,0-.2,0-.4,0-.7,0-.2,0-.4,0-.7,0-.2,0-.5,0-.7,0-.1,0-.2,0-.2.5-2.6,1.7-4.9,3.5-6.8,5-5.2,13-5.2,18,0,4.8,5,5,13,.6,18.2l-.7-1.2c-.5-.8-1.4-1-2.1-.5-.2.2-.4.4-.6.7l-3.1,6.6c-.4.8,0,1.8.7,2.2.2.1.5.2.7.2h7.1c.9,0,1.5-.8,1.5-1.7,0-.3,0-.6-.2-.8l-.7-1.2Z"/>
    <path class="st1" d="M39.5,49.3c-3.2-3.3-7.9-4.7-12.4-3.5-6.9,1.9-10.9,9.3-9.1,16.4,1.4,5.5,6,9.4,11.4,9.9.9,0,8.9,0,21.5,0,1.3,0,2.3,1.1,2.3,2.4,0,1.3-1,2.4-2.3,2.4-13.3,0-20.7,0-21.9,0-7.3-.6-13.6-5.9-15.5-13.5-2.5-9.7,3.1-19.8,12.4-22.4,6-1.7,12.3.1,16.6,4.4l1-1.2c.6-.7,1.5-.8,2.2-.2.2.2.4.4.5.7l2.2,7c.3.8-.2,1.8-1,2-.2,0-.5.1-.7,0l-7-1.1c-.8-.1-1.4-1-1.3-1.8,0-.3.2-.6.3-.8l.8-1Z"/>
    <path class="st2" d="M54.8,64.8c2.5,4.7,7.7,7.4,13.1,6.5,6.9-1.1,11.6-7.8,10.6-14.9,0-.6-.2-1.1-.4-1.7-1.3-4.6-5.1-8.1-9.7-9.1-1.3-.3-2.1-1.5-1.8-2.8.2-1.3,1.5-2.1,2.7-1.9,6.3,1.3,11.4,6,13.2,12.4.2.7.4,1.5.5,2.3,1.5,9.7-5,18.8-14.4,20.4-7.7,1.3-15.3-3-18.5-10.1l-1.8.4c-.3,0-.6,0-.8,0-.8-.3-1.2-1.2-1-2l2.4-7.3c0-.3.3-.5.5-.7.7-.6,1.6-.5,2.2.2l4.5,5.7c.2.2.3.4.3.7.2.9-.3,1.7-1.2,1.9h-.5Z"/>
  </g>
</svg>